HIERARCHY
ROOT Hips
{
	OFFSET -3.958830 18.904000 13.208200
	CHANNELS 6 Xposition Yposition Zposition Zrotation Yrotation Xrotation 
	JOINT LHipJoint
	{
		OFFSET 0.000000 0.000000 0.000000
		CHANNELS 3 Zrotation Yrotation Xrotation
		JOINT LeftUpLeg
		{
			OFFSET 1.800000 -1.400000 0.085000
			CHANNELS 3 Zrotation Yrotation Xrotation
			JOINT LeftLeg
			{
				OFFSET 2.215000 -6.000000 0.000000
				CHANNELS 3 Zrotation Yrotation Xrotation
				JOINT LeftFoot
				{
					OFFSET 2.500000 -6.900000 0.000000
					CHANNELS 3 Zrotation Yrotation Xrotation
					JOINT LeftToeBase
					{
						OFFSET 0.200000 -0.500000 1.950000
						CHANNELS 3 Zrotation Yrotation Xrotation
						End Site
						{
							OFFSET 0.000000 0.000000 0.000000
						}
					}
				}
			}
		}
	}
	JOINT RHipJoint
	{
		OFFSET 0.000000 0.000000 0.000000
		CHANNELS 3 Zrotation Yrotation Xrotation
		JOINT RightUpLeg
		{
			OFFSET -1.800000 -1.400000 0.085000
			CHANNELS 3 Zrotation Yrotation Xrotation
			JOINT RightLeg
			{
				OFFSET -2.215000 -6.000000 0.000000
				CHANNELS 3 Zrotation Yrotation Xrotation
				JOINT RightFoot
				{
					OFFSET -2.500000 -6.900000 0.000000
					CHANNELS 3 Zrotation Yrotation Xrotation
					JOINT RightToeBase
					{
						OFFSET -0.200000 -0.500000 1.950000
						CHANNELS 3 Zrotation Yrotation Xrotation
						End Site
						{
							OFFSET 0.000000 0.000000 0.000000
						}
					}
				}
			}
		}
	}
	JOINT LowerBack
	{
		OFFSET 0.000000 0.000000 0.000000
		CHANNELS 3 Zrotation Yrotation Xrotation
		JOINT Spine
		{
			OFFSET -0.087000 1.940000 -0.288900
			CHANNELS 3 Zrotation Yrotation Xrotation
			JOINT Spine1
			{
				OFFSET 0.000000 1.950000 0.060000
				CHANNELS 3 Zrotation Yrotation Xrotation
				JOINT Neck
				{
					OFFSET 0.000000 0.000000 0.000000
					CHANNELS 3 Zrotation Yrotation Xrotation
					JOINT Neck1
					{
						OFFSET 0.000000 1.600000 0.340000
						CHANNELS 3 Zrotation Yrotation Xrotation
						JOINT Head
						{
							OFFSET 0.000000 1.667000 -0.240000
							CHANNELS 3 Zrotation Yrotation Xrotation
							End Site
							{
								OFFSET 0.000000 0.000000 0.000000
							}
						}
					}
				}
				JOINT LeftShoulder
				{
					OFFSET 0.000000 0.000000 0.000000
					CHANNELS 3 Zrotation Yrotation Xrotation
					JOINT LeftArm
					{
						OFFSET 2.700000 1.550000 -0.730000
						CHANNELS 3 Zrotation Yrotation Xrotation
						JOINT LeftForeArm
						{
							OFFSET 5.450000 0.000000 0.000000
							CHANNELS 3 Zrotation Yrotation Xrotation
							JOINT LeftHand
							{
								OFFSET 3.450000 0.000000 0.000000
								CHANNELS 3 Zrotation Yrotation Xrotation
								JOINT LeftHandIndex1
								{
									OFFSET 0.750000 0.000000 0.000000
									CHANNELS 3 Zrotation Yrotation Xrotation
									End Site
									{
										OFFSET 0.000000 0.000000 0.000000
									}
								}
							}
						}
					}
				}
				JOINT RightShoulder
				{
					OFFSET 0.000000 0.000000 0.000000
					CHANNELS 3 Zrotation Yrotation Xrotation
					JOINT RightArm
					{
						OFFSET -2.700000 1.550000 -0.730000
						CHANNELS 3 Zrotation Yrotation Xrotation
						JOINT RightForeArm
						{
							OFFSET -5.450000 0.000000 0.000000
							CHANNELS 3 Zrotation Yrotation Xrotation
							JOINT RightHand
							{
								OFFSET -3.450000 0.000000 0.000000
								CHANNELS 3 Zrotation Yrotation Xrotation
								JOINT RightHandIndex1
								{
									OFFSET -0.750000 0.000000 0.000000
									CHANNELS 3 Zrotation Yrotation Xrotation
									End Site
									{
										OFFSET 0.000000 0.000000 0.000000
									}
								}
							}
						}
					}
				}
			}
		}
	}
}
MOTION
Frames: 9
Frame Time: 0.016667
-0.968420 14.662720 -4.613860 -40.907348 7.248977 15.844595 -16.174992 12.489706 4.626675 -10.962297 -13.028179 -29.497118 -11.704639 10.474245 35.614319 0.137366 6.529033 2.571973 0.955910 0.872140 0.998140 17.863821 -7.353312 3.672385 17.136242 7.428060 -31.695157 -83.013311 13.150894 20.982745 -2.766120 -10.756857 1.244756 0.251930 0.326860 0.008020 -1.547909 -7.125542 -8.880314 -5.556296 8.947665 65.677976 13.281562 4.088667 32.433902 -2.499928 7.338181 -10.191663 9.746644 2.819727 43.385741 -4.640270 13.869750 -16.679200 8.041302 -21.022641 2.967877 -4.279643 -26.851766 -0.533692 18.186100 3.087415 -2.460294 -4.426128 2.448004 0.381990 0.252900 -0.025770 0.151250 -7.497708 17.966788 9.565960 39.429959 8.250262 -6.331201 -29.888961 -8.868700 0.139532 2.248416 -1.705808 0.040440 0.711630 -0.187380 -0.340900 
-0.960980 14.674550 -4.639540 -41.871966 7.166806 15.591418 -16.108709 12.438029 4.617161 -9.679633 -12.948106 -30.061611 -11.758637 10.842292 37.400089 0.170639 6.855125 2.422912 0.983200 0.962780 0.907850 17.916874 -7.497364 3.675306 17.765992 7.421678 -31.756967 -76.074790 13.574184 23.922979 -2.637288 -10.483889 1.298783 0.332400 0.321470 0.021910 -1.722882 -6.746969 -8.829779 -4.487317 8.200918 66.134727 12.595280 4.291125 32.143863 -2.800310 7.194239 -9.778092 9.455397 3.075427 41.666123 -3.562180 13.357190 -16.435100 8.538662 -20.495193 2.882387 -4.303759 -27.531188 -0.115872 17.731683 3.615909 -2.388129 -4.418884 2.508621 0.351930 0.275710 -0.038070 0.173490 -7.424980 17.330578 8.988104 38.954068 8.523011 -7.247769 -32.699839 -8.127376 -0.398113 2.196256 -1.833695 0.058650 0.665450 -0.195090 -0.313500 
-0.957530 14.681660 -4.700700 -42.302946 7.052648 15.564310 -16.077209 12.393758 4.791947 -8.882426 -13.644841 -31.284161 -10.776280 11.430609 41.967579 0.332141 7.673355 2.160057 0.975260 0.953060 0.873320 17.940086 -7.696237 3.478561 16.367868 6.956660 -32.586590 -61.169180 13.158709 29.812541 -2.254278 -9.486599 1.550372 0.345770 0.366450 0.031090 -1.812824 -6.440628 -8.749241 -4.424099 7.990516 66.260770 12.188272 4.852843 31.283240 -2.958276 7.472326 -9.092168 9.966363 2.580871 39.522252 -3.043470 12.747870 -14.888810 9.837528 -19.168969 2.634503 -4.773124 -29.097969 0.793933 16.976776 4.010418 -2.327630 -4.439964 2.558619 0.294200 0.320670 -0.096150 0.181380 -8.338639 16.062150 8.157010 39.813125 9.343104 -8.783894 -37.468529 -5.320999 -1.930784 2.125507 -1.971877 0.058700 0.644400 -0.188400 -0.298590 
-0.991890 14.715320 -4.786880 -42.445429 6.677406 17.112997 -16.093518 12.174491 5.025644 -7.394740 -14.706837 -34.438434 -11.350043 12.568088 45.317710 0.511783 8.426425 1.901010 0.971250 0.958330 0.827190 17.958561 -7.609536 3.443176 15.403034 7.517697 -34.096241 -54.319923 12.902869 33.189515 -2.043199 -9.054540 1.666556 0.353460 0.375930 0.044270 -1.810164 -6.308726 -8.817907 -5.295296 8.935212 65.071098 12.681795 5.692699 29.433300 -3.554212 7.969827 -8.451204 10.718608 2.376524 37.800583 -2.510250 12.720370 -13.448260 11.376182 -17.545825 2.278887 -5.869347 -31.375085 2.146236 15.819767 4.833575 -2.139185 -4.436263 2.649548 0.230850 0.357880 -0.149480 0.181100 -8.680276 14.526778 7.175396 40.904215 10.355574 -10.688249 -43.783736 -0.171186 -4.798154 2.022328 -2.127530 0.082860 0.569350 -0.196010 -0.285220 
-0.977110 14.831470 -4.826250 -41.308628 5.624171 19.002180 -16.165915 12.213709 5.214487 -7.203577 -15.225668 -36.168665 -12.710591 13.381366 45.408370 0.523509 8.580672 1.768006 0.999340 1.020140 0.847790 17.896777 -7.576604 3.233697 13.453395 7.217815 -33.462034 -49.340156 11.992746 33.738301 -1.852727 -8.344040 1.810135 0.379000 0.286060 0.074450 -1.621432 -6.583856 -8.786022 -8.367478 11.767308 63.474852 14.091170 6.750707 29.341788 -4.121587 8.521212 -8.409829 11.723885 2.709166 37.291627 -3.146150 13.615690 -15.373120 12.289015 -17.703045 2.191678 -4.523581 -31.317245 2.057689 15.048173 5.128681 -2.048730 -4.423512 2.681293 0.252360 0.331850 -0.104670 0.124290 -8.812739 15.236439 7.097788 40.441585 11.222872 -13.070482 -49.528584 5.299897 -8.615253 1.913314 -2.190224 0.125140 0.488300 -0.190800 -0.306820 
-0.952080 14.968890 -4.841300 -39.867361 4.438610 21.104688 -16.287610 12.408903 5.353392 -7.993256 -15.476370 -37.387269 -12.137491 13.622411 46.042700 0.470026 8.686645 1.664896 1.014940 1.024070 0.893440 17.789864 -7.508751 2.957986 10.552628 7.013040 -32.458497 -44.176471 11.735693 36.786086 -1.727068 -8.041580 1.817990 0.409990 0.218730 0.133520 -1.296073 -7.178788 -8.686586 -12.332839 15.502413 60.940246 16.428975 8.027651 30.354790 -4.358394 9.401863 -8.415880 13.514899 2.858089 36.318192 -4.660960 14.821330 -15.849800 13.697255 -18.488978 2.027036 -2.903702 -30.896832 1.834764 14.333969 5.395490 -2.041478 -4.485593 2.712670 0.265020 0.351160 -0.090190 0.059210 -10.187332 16.878787 7.509683 40.227403 12.572028 -15.409619 -54.507279 9.340146 -12.654939 1.811748 -2.279224 0.135450 0.390710 -0.174950 -0.361460 
-0.906030 15.072810 -4.867850 -40.221733 2.643435 22.839113 -16.319411 12.473252 5.441198 -6.621966 -15.074637 -40.013478 -11.899184 14.033841 46.431629 0.390718 8.837538 1.549654 1.032620 0.989210 0.988750 17.753911 -7.554107 2.810266 8.878435 7.298003 -30.856508 -38.362715 10.640073 38.898236 -1.534813 -7.481695 1.915299 0.426230 0.137360 0.174920 -1.198764 -7.230330 -8.573002 -14.055416 17.843264 58.607587 17.126251 9.391677 31.620150 -4.179722 9.468757 -8.691370 14.038625 3.178498 35.646606 -6.911620 15.867730 -15.732710 15.374128 -19.722378 2.291737 -2.117552 -29.854559 1.343291 14.833557 5.988249 -2.087402 -4.575425 2.747681 0.275330 0.366870 -0.095460 -0.018630 -12.514797 19.388220 8.236800 40.189788 14.251784 -17.824941 -58.503395 14.337234 -17.793205 1.714728 -2.349920 0.131020 0.290570 -0.171060 -0.444670 
-0.816810 15.219110 -4.898410 -39.772265 0.907575 25.164565 -16.250093 12.383301 5.708641 -6.599399 -15.420756 -42.870924 -11.164950 13.570093 45.411719 0.244822 8.418724 1.606540 1.044710 0.999130 1.035210 17.784183 -7.911792 2.523744 5.650174 6.762746 -29.950443 -30.836793 8.168735 39.622477 -1.246747 -6.388335 2.203186 0.432090 0.016190 0.134450 -1.364000 -6.697411 -8.472269 -14.666647 19.361905 57.706288 17.201394 10.048057 32.344451 -5.393948 9.292458 -9.856539 13.958419 3.070241 37.314976 -7.183520 15.744500 -18.032990 14.992408 -22.740343 2.662440 1.981042 -26.741296 -0.373668 14.510720 6.132202 -2.065639 -4.579817 2.653640 0.341920 0.274780 -0.049450 -0.089250 -9.822505 23.203691 8.561789 36.558319 14.937380 -22.004354 -65.587734 17.724112 -23.636480 1.694332 -2.303107 0.131750 0.265290 -0.162470 -0.492470 
-0.748380 15.326480 -4.935890 -38.776056 0.744801 27.024923 -16.221662 12.239274 6.102061 -8.345513 -16.639692 -45.999274 -7.100333 11.751950 46.064800 0.054345 7.831119 1.731258 1.084920 1.061350 1.062800 17.803839 -8.203304 2.179314 2.851876 5.895052 -28.605009 -23.569938 5.413171 42.110582 -1.106193 -5.836398 2.358243 0.464040 -0.100700 0.087150 -1.456754 -6.308310 -8.443498 -14.665587 19.893525 58.045412 16.972543 10.228939 32.096889 -5.827340 8.736928 -10.693861 12.988938 2.619763 38.918891 -7.727060 14.809210 -21.421340 15.293399 -24.706320 2.320598 5.213776 -24.918444 -1.323024 13.653259 6.338279 -1.974868 -4.530890 2.524413 0.437400 0.173950 0.022800 -0.115790 -9.069604 26.038847 8.854680 33.129498 15.813072 -24.874161 -69.804030 22.827602 -29.381049 1.661124 -2.182314 0.127570 0.275300 -0.176220 -0.522900 
